<?xml version="1.0" standalone="no"?>
<!DOCTYPE svg PUBLIC "-//W3C//DTD SVG 20010904//EN"
 "http://www.w3.org/TR/2001/REC-SVG-20010904/DTD/svg10.dtd">
<svg version="1.0" xmlns="http://www.w3.org/2000/svg"
 width="3543.000000pt" height="3543.000000pt" viewBox="0 0 3543.000000 3543.000000"
 preserveAspectRatio="xMidYMid meet">

<g transform="translate(0.000000,3543.000000) scale(0.100000,-0.100000)"
fill="#000000" stroke="none">
<path d="M3140 34718 c-753 -69 -1433 -478 -1855 -1113 -228 -343 -366 -741
-405 -1165 -14 -161 -14 -28899 0 -29060 54 -599 304 -1135 724 -1556 399
-398 889 -638 1466 -716 141 -19 29189 -19 29330 0 577 78 1067 318 1466 716
425 426 675 967 724 1571 8 104 10 3863 8 14610 l-4 14470 -22 128 c-45 272
-117 498 -233 733 -119 244 -274 460 -474 660 -419 420 -956 670 -1555 724
-145 13 -29029 12 -29170 -2z m14729 -5170 c74 -128 142 -246 151 -263 9 -16
38 -65 64 -108 25 -43 46 -80 46 -82 0 -2 66 -117 146 -256 80 -140 157 -274
171 -299 56 -99 222 -398 248 -445 16 -27 56 -99 90 -160 34 -60 83 -150 110
-200 26 -49 60 -112 75 -140 15 -27 56 -104 90 -170 35 -66 66 -124 70 -130 4
-5 39 -71 77 -145 39 -74 103 -198 143 -275 86 -164 463 -918 543 -1085 134
-280 187 -392 187 -395 0 -1 22 -49 49 -106 26 -57 59 -126 71 -154 12 -27 36
-79 52 -115 17 -36 48 -105 70 -155 22 -49 48 -108 58 -130 10 -22 50 -114 89
-205 72 -165 80 -184 120 -272 12 -27 67 -159 122 -295 56 -137 107 -263 115
-281 8 -17 20 -47 28 -65 8 -17 33 -79 56 -137 23 -58 45 -114 50 -125 5 -11
47 -121 95 -245 48 -124 93 -238 100 -255 31 -74 193 -499 212 -555 8 -25 31
-88 50 -140 53 -143 102 -279 123 -340 10 -30 44 -127 75 -215 31 -88 67 -191
80 -230 62 -187 148 -453 155 -480 4 -16 25 -82 45 -145 41 -128 73 -230 85
-275 8 -29 100 -356 120 -425 16 -54 88 -336 107 -417 10 -40 21 -73 25 -73 5
0 8 6 8 13 0 11 17 109 40 227 4 25 13 71 19 103 6 31 15 81 21 110 5 28 21
115 35 192 14 77 30 167 34 200 36 237 53 375 71 555 6 58 15 148 20 200 32
315 45 780 42 1523 -1 503 1 638 11 635 12 -5 245 -346 246 -361 1 -5 14 -27
30 -50 26 -39 71 -110 219 -352 50 -82 159 -265 202 -340 9 -16 38 -65 64
-108 25 -43 46 -80 46 -82 0 -2 14 -28 32 -57 43 -73 138 -240 138 -243 0 -2
17 -34 39 -72 21 -37 66 -122 101 -188 34 -66 66 -124 70 -130 11 -16 172
-323 336 -640 149 -291 216 -427 421 -855 74 -154 112 -237 201 -435 22 -49
54 -120 71 -158 17 -37 31 -70 31 -72 0 -4 50 -118 105 -240 7 -16 39 -93 70
-170 31 -77 63 -153 70 -170 45 -108 135 -336 175 -440 4 -11 12 -31 18 -45
30 -71 145 -386 258 -705 77 -217 220 -657 255 -782 5 -18 13 -48 18 -65 105
-365 116 -407 170 -638 74 -321 135 -660 171 -960 25 -215 38 -357 46 -505 3
-66 10 -125 14 -130 12 -14 11 -616 0 -630 -4 -5 -11 -66 -14 -135 -12 -255
-57 -646 -106 -912 -5 -32 -14 -82 -20 -110 -12 -71 -55 -271 -75 -355 -39
-163 -58 -240 -66 -268 -5 -16 -18 -64 -30 -105 -54 -195 -166 -542 -209 -645
-4 -11 -32 -81 -61 -155 -28 -74 -63 -159 -75 -188 -13 -29 -24 -55 -24 -58 0
-2 -18 -43 -40 -90 -22 -47 -40 -88 -40 -90 0 -12 -188 -385 -266 -529 -795
-1465 -2079 -2742 -3544 -3527 -97 -52 -447 -228 -454 -228 -2 0 -51 -22 -108
-48 -206 -96 -555 -229 -843 -322 -485 -155 -1054 -277 -1540 -330 -55 -6
-133 -15 -173 -20 -40 -6 -114 -10 -165 -10 -51 0 -98 -5 -103 -10 -13 -13
-870 -6 -1034 8 -391 34 -674 74 -1035 147 -122 24 -543 125 -610 146 -16 5
-97 29 -180 55 -285 87 -663 227 -890 329 -262 118 -457 216 -727 366 -513
286 -1048 668 -1503 1074 -495 442 -981 982 -1353 1502 -102 143 -362 536
-362 547 0 2 -24 43 -53 92 -80 134 -216 385 -281 519 -64 132 -166 348 -166
351 0 2 -11 27 -24 56 -100 219 -237 588 -316 848 -12 41 -26 86 -31 100 -16
48 -101 360 -119 440 -76 328 -120 575 -155 855 -50 402 -55 489 -55 1002 0
511 5 603 51 978 51 414 154 921 279 1365 5 19 24 85 40 145 17 61 42 144 55
185 13 41 47 149 75 240 29 91 71 221 95 290 24 69 57 168 75 220 41 120 79
227 185 510 56 151 299 767 327 830 35 79 46 104 66 155 11 28 34 80 51 118
17 37 31 70 31 72 0 2 11 28 24 57 13 29 40 91 61 138 21 47 57 127 81 178 24
51 44 95 44 96 0 4 66 146 158 341 99 209 454 911 542 1070 15 28 56 104 90
170 96 185 285 527 410 745 43 74 86 151 97 170 159 280 487 815 656 1070 98
148 127 184 138 173 4 -5 3 -143 -2 -308 -5 -165 -9 -439 -10 -610 0 -294 16
-896 26 -960 2 -16 7 -70 10 -120 21 -326 64 -699 120 -1035 14 -85 30 -179
35 -207 20 -109 31 -169 40 -218 5 -27 17 -99 26 -160 18 -122 22 -140 30
-133 3 3 21 66 40 139 91 349 111 420 140 519 13 47 34 117 45 155 11 39 24
81 29 95 4 14 18 59 30 100 52 181 121 398 211 670 91 274 174 516 223 650 19
52 46 129 61 170 14 41 30 84 35 95 5 11 21 54 35 95 35 100 102 275 126 327
10 24 19 46 19 49 0 5 49 134 80 209 4 11 27 70 50 130 24 61 49 126 57 145 8
19 19 44 23 55 126 318 397 973 454 1100 8 17 35 80 61 140 26 61 55 128 65
150 10 22 32 74 50 115 18 41 43 98 55 125 13 28 33 73 45 100 32 72 88 194
161 353 17 37 47 101 66 142 133 288 541 1116 738 1495 145 279 197 380 225
430 15 28 53 100 85 160 32 61 61 115 65 120 4 6 31 55 60 110 29 55 66 124
81 153 16 28 43 78 60 110 17 31 44 80 59 107 15 28 44 82 65 120 21 39 65
117 98 175 33 58 73 130 90 160 16 30 71 127 122 215 50 88 103 180 117 205
51 90 87 153 278 480 79 135 153 263 165 285 31 60 35 65 49 65 6 0 72 -105
145 -232z"/>
<path d="M17264 27159 c-6 -8 -37 -63 -69 -124 -32 -60 -61 -114 -65 -120 -7
-9 -32 -56 -242 -460 -93 -178 -436 -867 -534 -1071 -106 -222 -217 -457 -266
-564 -54 -118 -139 -304 -153 -335 -13 -30 -27 -61 -99 -220 -20 -44 -41 -89
-45 -100 -5 -11 -25 -55 -45 -98 -20 -43 -36 -80 -36 -82 0 -3 -11 -28 -24
-57 -14 -30 -34 -78 -46 -108 -12 -30 -32 -78 -46 -108 -13 -29 -24 -55 -24
-57 0 -2 -12 -30 -26 -62 -35 -77 -44 -98 -99 -233 -46 -113 -57 -140 -88
-210 -8 -19 -47 -116 -87 -215 -40 -99 -76 -189 -80 -200 -5 -11 -30 -74 -55
-140 -26 -66 -51 -129 -55 -140 -25 -61 -114 -297 -126 -335 -8 -25 -19 -54
-24 -65 -9 -22 -76 -202 -92 -250 -5 -16 -14 -39 -18 -50 -16 -38 -236 -671
-284 -820 -50 -151 -137 -424 -157 -490 -12 -38 -25 -81 -30 -95 -11 -33 -87
-291 -105 -359 -8 -29 -25 -92 -38 -140 -121 -431 -231 -891 -306 -1276 -57
-291 -57 -288 -80 -430 -11 -71 -25 -154 -30 -184 -16 -85 -12 -119 21 -226
30 -95 110 -325 130 -372 8 -22 16 -41 38 -95 5 -13 21 -49 35 -81 14 -32 26
-60 26 -62 0 -2 11 -28 24 -57 13 -29 34 -75 46 -103 32 -72 192 -393 222
-446 14 -24 39 -69 55 -99 47 -86 108 -192 205 -355 48 -82 92 -156 96 -164
10 -18 32 -27 32 -13 0 5 20 45 43 88 24 44 63 115 87 159 23 44 55 103 70
130 15 28 51 95 80 150 29 55 56 105 60 110 4 6 31 55 60 110 29 55 66 125 83
155 16 30 45 84 64 120 20 36 46 83 58 105 12 22 41 76 65 120 100 186 127
237 195 360 39 72 100 184 135 250 35 66 71 135 82 153 10 18 43 81 74 140 31
59 60 112 64 117 10 13 72 131 155 290 37 72 80 153 95 180 34 62 113 212 312
595 36 69 93 177 126 240 33 63 107 207 165 320 98 194 151 294 288 556 32 61
90 174 128 250 l71 139 -2 3224 c-2 2374 -6 3220 -14 3210z"/>
<path d="M18159 26683 c-2 -269 -4 -1714 -4 -3213 0 -2455 2 -2728 16 -2755
26 -51 130 -246 169 -320 21 -38 70 -133 110 -210 40 -77 99 -189 130 -250 32
-60 131 -254 220 -430 89 -176 191 -374 225 -440 77 -148 195 -376 288 -555
38 -74 73 -139 77 -145 4 -5 31 -55 60 -110 29 -55 65 -122 80 -150 15 -27 45
-84 67 -125 94 -175 112 -208 148 -275 21 -38 53 -96 71 -128 19 -32 34 -60
34 -62 0 -2 17 -34 39 -72 21 -37 58 -104 81 -148 23 -44 55 -102 70 -130 15
-27 49 -90 75 -140 27 -49 67 -124 90 -165 65 -116 88 -158 226 -417 23 -43
45 -82 49 -88 4 -5 31 -55 60 -110 29 -55 69 -129 89 -165 20 -36 52 -95 71
-132 19 -38 38 -68 42 -68 9 0 288 470 288 486 0 2 14 27 31 56 37 62 214 413
257 508 27 60 76 172 107 245 7 17 22 51 34 77 11 26 21 52 21 57 0 5 11 33
24 62 28 64 116 326 141 422 17 65 17 72 1 175 -77 464 -124 718 -187 997 -11
50 -24 110 -30 135 -12 54 -86 348 -128 510 -32 125 -129 473 -163 585 -11 39
-31 104 -44 145 -12 41 -37 122 -54 180 -38 125 -106 336 -166 515 -70 211
-220 646 -239 695 -9 25 -25 68 -35 95 -131 354 -253 681 -290 770 -4 11 -29
74 -55 140 -26 66 -52 131 -57 145 -12 28 -27 66 -38 95 -35 89 -76 189 -96
233 -13 29 -24 56 -24 61 0 4 -6 21 -14 37 -8 16 -31 70 -51 119 -20 50 -43
104 -50 120 -8 17 -42 95 -75 175 -74 174 -84 197 -121 278 -16 35 -29 65 -29
67 0 2 -16 38 -35 79 -19 42 -35 78 -35 81 0 3 -16 40 -36 82 -20 43 -53 116
-74 163 -21 47 -54 121 -75 165 -20 44 -48 105 -62 135 -14 30 -43 93 -65 140
-23 47 -58 123 -80 170 -209 455 -776 1577 -973 1925 -28 50 -58 107 -68 128
-10 20 -22 37 -26 37 -4 0 -10 -219 -12 -487z"/>
<path d="M12122 20183 c-21 -43 -110 -222 -199 -398 -88 -176 -172 -345 -185
-375 -14 -30 -43 -91 -63 -135 -21 -44 -46 -98 -55 -120 -20 -46 -54 -120
-115 -255 -58 -128 -185 -419 -185 -425 0 -2 -13 -33 -29 -67 -16 -35 -79
-191 -141 -348 -62 -157 -116 -294 -120 -305 -23 -54 -121 -319 -144 -385 -14
-41 -43 -127 -66 -190 -57 -161 -132 -383 -175 -525 -20 -66 -40 -131 -45
-145 -44 -134 -44 -135 -16 -221 159 -481 956 -1729 1690 -2648 325 -407 824
-991 847 -991 4 0 12 15 19 33 8 17 31 70 52 115 21 46 38 86 38 87 0 2 34 74
75 160 41 86 75 158 75 160 0 11 306 637 626 1280 l224 451 -96 144 c-52 80
-101 156 -108 170 -7 14 -44 75 -81 135 -37 61 -76 124 -85 140 -79 138 -130
228 -130 231 0 2 -14 26 -30 54 -89 150 -365 704 -465 930 -21 47 -46 103 -55
125 -10 22 -34 81 -55 130 -20 50 -44 106 -52 125 -8 19 -18 44 -23 55 -4 11
-12 31 -18 45 -12 28 -134 348 -162 425 -98 266 -212 604 -275 810 -56 180
-119 398 -135 465 -4 19 -35 143 -69 275 -64 257 -64 257 -110 470 -54 250
-101 515 -101 564 0 50 -16 36 -58 -46z"/>
<path d="M23247 20143 c-19 -119 -86 -464 -113 -583 -8 -36 -19 -83 -24 -105
-5 -22 -32 -132 -60 -245 -76 -311 -129 -504 -210 -770 -17 -58 -40 -132 -50
-165 -26 -89 -139 -427 -149 -450 -6 -11 -23 -58 -39 -105 -17 -47 -45 -123
-62 -170 -18 -47 -35 -96 -40 -110 -16 -52 -178 -442 -252 -610 -57 -128 -72
-161 -106 -235 -20 -44 -80 -168 -134 -275 -120 -239 -182 -358 -313 -595
-104 -188 -358 -615 -427 -717 -21 -31 -38 -62 -38 -69 0 -6 33 -79 74 -163
41 -83 101 -207 134 -276 32 -69 100 -208 150 -310 84 -173 127 -261 312 -645
40 -82 105 -217 145 -300 98 -202 195 -406 195 -410 0 -2 21 -47 46 -101 l46
-99 25 30 c14 17 67 77 118 135 96 109 394 462 477 566 26 32 78 97 116 144
446 553 1031 1387 1322 1885 157 269 208 361 294 530 110 217 136 274 172 379
l24 69 -51 161 c-64 203 -216 659 -264 791 -20 55 -43 120 -51 145 -16 47 -99
270 -114 305 -5 11 -23 58 -40 105 -17 47 -47 126 -67 175 -19 50 -39 99 -43
110 -4 11 -15 36 -23 55 -8 19 -45 109 -82 200 -37 91 -83 201 -102 245 -20
44 -41 94 -49 110 -7 17 -31 70 -53 118 -23 49 -41 90 -41 92 0 4 -35 81 -90
200 -15 33 -40 87 -55 120 -41 90 -357 724 -420 845 -31 58 -59 106 -63 108
-4 1 -15 -51 -25 -115z"/>
<path d="M17625 19468 c-48 -95 -107 -209 -130 -253 -59 -110 -155 -295 -270
-520 -144 -280 -243 -471 -285 -550 -21 -38 -72 -137 -115 -220 -116 -223
-184 -353 -220 -420 -18 -33 -67 -127 -110 -210 -43 -82 -81 -154 -85 -160 -4
-5 -38 -68 -75 -140 -38 -71 -81 -152 -97 -178 -15 -26 -28 -49 -28 -51 0 -2
-19 -39 -43 -82 -24 -44 -61 -110 -82 -149 -21 -38 -50 -92 -65 -120 -15 -27
-48 -88 -72 -135 -25 -47 -93 -170 -150 -275 -58 -104 -133 -244 -168 -310
-34 -66 -66 -124 -70 -130 -4 -5 -47 -86 -95 -180 -48 -93 -111 -215 -140
-270 -29 -55 -101 -194 -161 -310 -59 -115 -152 -295 -206 -400 -54 -104 -190
-374 -302 -600 -193 -390 -235 -475 -321 -660 -21 -44 -58 -123 -82 -175 -38
-81 -74 -160 -147 -325 -8 -16 -26 -57 -41 -90 -94 -208 -240 -597 -322 -860
-71 -228 -146 -550 -172 -745 -6 -41 -16 -113 -23 -160 -16 -110 -17 -572 -1
-660 7 -36 17 -101 23 -145 14 -93 56 -308 75 -380 8 -27 23 -86 35 -130 21
-79 112 -358 145 -445 103 -273 207 -475 379 -740 116 -178 312 -453 328 -459
12 -4 13 -7 -31 119 -40 114 -71 274 -91 462 -18 179 -9 518 19 673 5 28 15
84 21 125 15 95 80 347 118 465 34 103 128 346 166 429 14 31 26 59 26 62 0 7
291 590 322 644 14 25 49 90 78 145 29 55 65 123 80 150 15 28 45 84 67 125
22 41 56 104 75 140 20 36 55 101 78 145 58 110 117 220 150 280 15 28 58 109
95 180 37 72 71 135 75 140 4 6 31 55 60 110 29 55 60 114 70 130 9 17 43 80
75 140 32 61 64 119 70 130 7 11 32 56 55 100 24 44 58 109 78 145 19 36 55
103 79 150 25 47 49 90 53 95 4 6 29 51 55 100 27 50 58 108 70 130 12 22 41
76 65 120 23 44 57 107 75 140 18 33 51 94 72 135 22 41 55 102 73 135 84 154
157 290 220 410 29 55 56 105 60 110 4 6 31 55 60 110 30 55 78 145 108 200
30 55 73 134 95 175 22 41 54 102 72 135 18 33 54 101 80 150 26 50 58 108 70
130 57 103 123 228 165 310 26 50 53 91 61 92 9 2 29 -29 56 -85 40 -83 122
-239 182 -347 16 -27 50 -90 76 -140 26 -49 51 -94 55 -100 4 -5 31 -55 60
-110 29 -55 60 -113 70 -130 19 -33 64 -116 130 -240 23 -44 48 -89 56 -101 7
-11 34 -61 59 -110 26 -49 51 -93 55 -99 4 -5 35 -64 70 -130 34 -66 66 -124
70 -130 4 -5 24 -41 45 -80 21 -38 50 -92 65 -120 15 -27 49 -90 75 -140 27
-49 67 -124 90 -165 23 -41 57 -102 75 -135 18 -33 40 -73 50 -90 29 -51 84
-152 197 -365 25 -47 62 -116 83 -155 21 -38 57 -106 80 -150 24 -44 46 -84
50 -90 4 -5 29 -50 55 -100 62 -117 121 -228 155 -290 15 -27 44 -81 65 -120
21 -38 46 -83 55 -100 10 -16 32 -56 49 -87 17 -32 44 -82 60 -110 15 -29 50
-93 76 -143 26 -49 56 -103 65 -120 10 -16 46 -84 80 -150 35 -66 66 -124 70
-130 7 -10 49 -89 148 -275 85 -161 288 -571 322 -650 18 -41 40 -93 50 -115
103 -232 183 -476 256 -780 23 -97 50 -300 64 -484 19 -238 -28 -655 -100
-896 -12 -38 -24 -78 -27 -89 -13 -42 20 -4 118 134 219 311 280 408 421 670
21 38 63 134 125 280 8 19 19 44 24 55 16 38 106 300 124 360 10 33 24 79 31
102 110 345 169 819 145 1173 -11 166 -16 210 -42 370 -29 177 -96 487 -130
595 -5 17 -23 75 -40 130 -45 146 -106 326 -136 403 -68 177 -148 375 -180
447 -20 44 -43 98 -53 120 -67 153 -94 212 -135 300 -26 55 -72 152 -102 215
-30 63 -82 174 -116 245 -68 144 -602 1209 -689 1375 -30 58 -113 218 -183
355 -70 138 -131 255 -135 260 -4 6 -42 78 -85 160 -43 83 -81 155 -85 160 -4
6 -33 60 -65 120 -32 61 -67 126 -78 145 -11 19 -38 69 -60 110 -22 41 -55
101 -73 133 -19 32 -34 60 -34 62 0 2 -17 34 -38 72 -22 37 -63 113 -92 168
-29 55 -72 134 -95 175 -41 73 -75 136 -148 270 -35 66 -73 137 -132 245 -18
33 -56 105 -85 160 -29 55 -64 120 -78 145 -30 55 -79 148 -162 305 -105 201
-161 306 -205 390 -41 78 -97 184 -225 430 -35 66 -84 161 -110 210 -26 50
-100 194 -165 320 -188 366 -220 425 -226 425 -4 0 -46 -78 -94 -172z"/>
<path d="M10236 14973 c-75 -539 -90 -1042 -46 -1543 23 -252 45 -422 86 -650
43 -241 53 -288 107 -495 25 -93 55 -204 67 -245 11 -41 25 -88 30 -105 10
-35 106 -315 148 -430 30 -84 61 -161 93 -232 11 -24 19 -45 19 -48 0 -4 24
-58 82 -185 527 -1150 1301 -2156 2297 -2985 302 -251 331 -275 341 -275 16 0
12 9 -24 53 -70 86 -264 444 -345 637 -13 30 -30 71 -38 90 -59 137 -116 299
-163 460 -12 41 -26 86 -31 100 -42 118 -128 548 -149 745 -6 55 -15 136 -20
180 -22 202 -22 687 1 895 4 41 13 125 19 185 6 61 15 133 20 160 4 28 13 84
20 125 7 41 18 106 26 144 18 83 29 63 -141 256 -549 624 -1092 1298 -1561
1936 -125 169 -502 733 -591 884 -11 19 -63 106 -116 193 -53 87 -99 167 -102
177 -11 33 -22 22 -29 -27z"/>
<path d="M25166 14982 c-114 -220 -570 -915 -854 -1302 -146 -198 -312 -415
-472 -615 -96 -121 -193 -242 -215 -271 -59 -75 -466 -562 -635 -759 -80 -93
-181 -213 -225 -265 -44 -52 -85 -101 -92 -108 -15 -16 -15 -15 -2 -72 44
-190 84 -499 100 -775 40 -701 -63 -1379 -315 -2078 -20 -54 -43 -115 -52
-135 -9 -20 -21 -48 -26 -62 -6 -14 -14 -34 -19 -45 -75 -181 -294 -592 -361
-677 -41 -52 -20 -55 39 -5 28 23 92 76 143 117 356 287 828 733 1097 1035
413 465 815 1046 1117 1615 89 167 256 510 256 525 0 2 13 33 28 67 16 35 59
140 95 233 278 718 434 1405 487 2141 20 282 10 860 -19 1094 -6 41 -18 141
-27 223 -9 81 -21 147 -25 147 -5 0 -15 -13 -23 -28z"/>
<path d="M17646 13727 c-114 -226 -363 -704 -376 -722 -4 -5 -42 -77 -85 -160
-43 -82 -81 -154 -85 -160 -4 -5 -35 -64 -70 -130 -34 -66 -70 -133 -80 -150
-9 -16 -39 -70 -65 -120 -27 -49 -68 -125 -92 -169 -23 -43 -43 -80 -43 -81 0
-1 -25 -46 -55 -100 -30 -53 -55 -98 -55 -100 0 -2 -15 -30 -34 -62 -35 -61
-76 -137 -146 -268 -23 -44 -85 -159 -138 -255 -125 -230 -154 -285 -253 -475
-46 -88 -114 -218 -151 -290 -159 -303 -365 -722 -398 -811 -6 -16 -17 -42
-25 -59 -72 -160 -152 -475 -191 -750 -26 -188 -9 -463 41 -675 4 -14 11 -45
17 -70 104 -436 399 -892 768 -1187 252 -201 561 -361 840 -435 19 -5 51 -13
70 -19 109 -29 290 -59 482 -79 251 -26 609 8 908 87 556 146 1038 486 1345
948 201 301 304 587 360 989 44 316 -22 754 -177 1176 -63 172 -249 561 -463
965 -26 50 -72 137 -103 195 -30 58 -67 128 -82 155 -15 28 -49 91 -75 140
-26 50 -57 108 -70 130 -12 22 -40 74 -62 115 -82 152 -251 460 -263 475 -4 6
-30 53 -57 105 -28 52 -67 124 -87 158 -20 35 -36 65 -36 67 0 2 -15 30 -34
62 -18 32 -50 90 -71 128 -21 39 -59 108 -85 155 -26 47 -73 135 -105 195 -31
61 -70 133 -85 160 -15 28 -47 86 -70 130 -24 44 -46 85 -50 90 -4 6 -40 73
-80 150 -40 77 -76 145 -80 150 -7 9 -97 184 -224 432 -26 51 -51 95 -55 98
-5 2 -38 -55 -75 -128z"/>
</g>
</svg>
