<?xml version="1.0" standalone="no"?>
<!DOCTYPE svg PUBLIC "-//W3C//DTD SVG 20010904//EN"
 "http://www.w3.org/TR/2001/REC-SVG-20010904/DTD/svg10.dtd">
<svg version="1.0" xmlns="http://www.w3.org/2000/svg"
 width="3543.000000pt" height="3543.000000pt" viewBox="0 0 3543.000000 3543.000000"
 preserveAspectRatio="xMidYMid meet">

<g transform="translate(0.000000,3543.000000) scale(0.100000,-0.100000)"
fill="#000000" stroke="none">
<path d="M3135 34719 c-744 -71 -1428 -479 -1840 -1099 -239 -358 -375 -743
-414 -1170 -15 -162 -15 -28918 0 -29080 112 -1212 1057 -2157 2269 -2269 162
-15 29008 -15 29170 0 852 79 1596 575 1993 1329 134 253 211 494 269 840 17
102 25 28963 8 29165 -104 1217 -1052 2171 -2270 2284 -141 13 -29047 13
-29185 0z m17624 -2976 c12 -14 33 -65 47 -112 15 -47 37 -102 51 -122 13 -20
33 -69 45 -110 11 -41 28 -90 38 -109 10 -19 28 -69 40 -110 12 -41 34 -93 49
-115 30 -44 110 -237 135 -328 9 -32 30 -79 46 -105 15 -26 40 -85 54 -132 47
-156 101 -305 124 -341 21 -35 60 -140 124 -338 16 -52 40 -111 53 -130 13
-20 33 -65 45 -100 12 -35 32 -85 45 -110 12 -25 30 -70 39 -99 8 -29 29 -77
45 -105 16 -29 41 -90 55 -137 54 -180 89 -278 127 -353 21 -43 39 -87 39 -98
0 -11 15 -59 34 -107 18 -48 41 -114 50 -147 10 -33 30 -80 46 -105 34 -55 37
-66 50 -164 6 -51 22 -105 45 -156 32 -71 36 -89 45 -221 5 -79 23 -234 39
-344 16 -110 34 -285 40 -390 16 -271 30 -429 46 -510 21 -111 24 -136 40
-395 17 -287 30 -397 56 -502 28 -110 25 -167 -10 -237 -17 -32 -39 -91 -49
-132 -21 -79 -94 -287 -135 -385 -14 -32 -30 -86 -37 -119 -7 -33 -25 -92 -40
-130 -17 -43 -33 -109 -40 -170 -13 -107 -18 -127 -54 -195 -14 -25 -34 -82
-46 -128 -11 -46 -29 -107 -40 -135 -11 -29 -29 -92 -40 -141 -30 -131 -70
-186 -125 -172 -13 3 -34 23 -46 43 -13 20 -41 58 -64 84 -22 26 -60 76 -85
110 -25 35 -64 84 -87 109 -22 25 -69 81 -102 125 -197 257 -268 350 -333 432
-246 311 -243 305 -235 387 3 28 14 105 25 171 12 66 37 217 57 335 19 118 49
256 65 305 17 52 41 162 54 255 14 91 32 197 40 235 8 39 24 129 35 200 12 72
34 175 50 230 16 55 34 132 39 170 6 39 16 106 22 150 6 44 21 116 33 160 29
111 29 260 0 330 -12 28 -31 95 -42 150 -12 55 -35 129 -52 164 -16 35 -38 99
-49 143 -12 43 -29 100 -39 126 -10 26 -28 96 -40 156 -13 64 -34 133 -52 168
-17 33 -39 100 -49 149 -11 49 -28 118 -39 152 -10 34 -26 103 -36 152 -9 50
-32 124 -50 165 -19 41 -43 119 -55 172 -11 53 -32 123 -45 156 -31 75 -78
266 -100 402 -21 127 -37 170 -63 170 -25 0 -35 -13 -61 -83 -11 -32 -28 -68
-36 -81 -8 -12 -30 -67 -49 -122 -57 -167 -96 -266 -125 -319 -16 -27 -34 -75
-41 -105 -7 -30 -25 -86 -41 -125 -15 -38 -35 -99 -44 -135 -9 -36 -32 -90
-50 -120 -18 -30 -39 -82 -45 -115 -7 -33 -23 -87 -37 -120 -14 -33 -34 -91
-45 -130 -11 -38 -32 -92 -48 -120 -16 -27 -37 -81 -48 -120 -11 -38 -27 -88
-37 -110 -9 -22 -25 -67 -36 -100 -10 -33 -34 -84 -53 -114 -20 -30 -40 -77
-46 -105 -6 -28 -21 -74 -34 -103 -14 -28 -34 -87 -46 -130 -12 -43 -35 -101
-51 -130 -17 -29 -41 -94 -55 -143 -13 -50 -30 -103 -38 -118 -8 -16 -24 -65
-35 -110 -11 -46 -32 -103 -47 -127 -14 -25 -39 -85 -55 -133 -76 -233 -99
-292 -127 -331 -36 -49 -56 -133 -50 -203 5 -51 19 -74 105 -179 59 -71 85
-105 206 -264 46 -61 92 -117 101 -125 10 -7 32 -34 49 -59 17 -25 51 -70 76
-100 25 -29 86 -107 136 -172 155 -203 228 -291 300 -364 64 -63 106 -114 202
-241 17 -23 58 -70 90 -105 70 -76 115 -139 198 -274 66 -109 171 -261 186
-271 5 -3 28 -31 51 -62 23 -31 67 -84 98 -117 30 -33 78 -93 105 -133 56 -82
174 -221 250 -297 28 -27 84 -93 123 -145 40 -52 98 -124 128 -160 30 -36 64
-81 75 -100 11 -19 35 -56 53 -81 23 -33 36 -66 45 -120 8 -40 22 -98 32 -128
10 -29 30 -107 44 -173 14 -65 34 -136 44 -156 25 -50 48 -124 62 -202 6 -36
24 -96 40 -135 15 -38 33 -96 39 -127 6 -32 22 -77 34 -100 35 -65 44 -103 56
-218 6 -59 23 -147 39 -200 16 -52 37 -132 46 -178 9 -46 27 -108 41 -138 25
-57 74 -248 74 -290 0 -14 -10 -30 -24 -39 -22 -15 -29 -15 -76 -1 -58 17
-107 45 -135 76 -10 11 -44 28 -74 36 -31 9 -74 26 -96 39 -22 12 -71 32 -110
44 -38 12 -88 35 -110 50 -23 16 -68 37 -100 46 -33 10 -80 28 -105 40 -25 12
-70 30 -100 40 -30 9 -84 34 -120 55 -36 21 -85 44 -110 50 -24 7 -65 22 -90
35 -25 12 -72 30 -105 40 -33 9 -80 29 -105 45 -25 16 -73 37 -106 48 -34 11
-80 32 -103 46 -22 14 -62 33 -88 42 -27 9 -73 31 -103 49 -30 19 -75 39 -100
45 -24 7 -69 25 -100 40 -31 15 -76 33 -100 40 -25 6 -70 26 -102 45 -31 18
-85 43 -120 55 -34 13 -76 29 -91 37 -15 7 -58 23 -95 34 -37 12 -94 36 -127
54 -33 18 -85 41 -115 50 -30 10 -75 28 -100 40 -25 13 -78 27 -119 33 -57 8
-86 19 -125 45 -67 46 -79 51 -158 72 -65 17 -68 17 -136 -4 -38 -11 -92 -36
-119 -55 -51 -35 -92 -49 -175 -61 -26 -3 -69 -18 -95 -32 -26 -14 -72 -34
-102 -44 -30 -11 -75 -33 -101 -49 -26 -17 -80 -41 -120 -55 -40 -14 -78 -29
-84 -34 -6 -5 -44 -20 -84 -35 -40 -14 -89 -37 -110 -51 -20 -14 -59 -32 -86
-41 -27 -9 -70 -30 -94 -45 -25 -16 -68 -36 -96 -45 -28 -9 -65 -27 -82 -40
-36 -27 -190 -96 -286 -130 -36 -12 -84 -34 -105 -48 -40 -27 -148 -75 -282
-126 -40 -16 -90 -41 -111 -55 -21 -15 -66 -35 -99 -45 -33 -11 -79 -29 -103
-41 -23 -12 -67 -30 -98 -40 -30 -11 -73 -32 -95 -47 -61 -43 -206 -119 -256
-133 -24 -7 -71 -30 -104 -51 -32 -21 -71 -41 -85 -45 -14 -3 -54 -19 -90 -36
-36 -16 -89 -38 -117 -48 -29 -10 -72 -31 -95 -47 -56 -38 -194 -85 -362 -123
-32 -7 -76 -26 -98 -42 -37 -26 -94 -53 -272 -128 -37 -16 -85 -42 -105 -58
-34 -27 -125 -70 -236 -112 -27 -10 -90 -39 -140 -63 -136 -67 -266 -124 -302
-131 -17 -3 -53 -22 -80 -41 -26 -19 -77 -44 -113 -56 -36 -11 -74 -27 -85
-34 -11 -7 -50 -24 -88 -38 -37 -15 -86 -38 -109 -53 -23 -16 -78 -43 -122
-62 l-81 -34 -550 -9 c-302 -4 -560 -6 -572 -3 -48 11 -54 46 -47 284 5 166 4
227 -5 249 -12 29 -45 51 -101 67 -14 4 -47 19 -75 35 -27 15 -75 35 -105 45
-30 10 -77 30 -105 46 -27 15 -75 35 -105 44 -30 8 -91 35 -135 58 -73 38 -80
45 -83 74 -4 37 18 61 118 136 30 22 91 79 135 126 166 177 219 226 546 513
58 51 155 139 216 195 61 55 133 118 162 138 28 20 51 40 51 44 0 4 34 37 76
72 42 35 110 96 151 136 42 39 101 85 132 102 56 30 145 113 221 206 63 78
115 255 140 475 6 58 22 157 36 220 13 63 31 171 40 240 10 82 27 159 50 225
21 60 40 144 49 212 8 62 26 168 39 235 14 68 28 148 31 178 15 124 38 240 66
334 35 112 58 143 199 259 47 39 99 84 115 101 17 17 62 56 100 86 38 30 87
71 109 91 23 20 79 59 126 87 47 28 99 64 115 82 17 18 58 54 93 82 34 28 87
79 116 113 53 62 138 140 260 239 34 27 86 72 117 100 30 28 84 73 119 101 34
27 68 54 74 60 6 5 47 41 91 78 44 38 118 101 165 142 100 85 160 136 290 243
192 158 226 184 270 209 25 15 101 81 170 147 69 67 156 146 194 176 38 30
101 83 140 117 80 70 185 146 233 168 20 9 93 19 200 25 92 6 240 21 328 32
226 30 252 30 279 -5 21 -28 21 -36 21 -487 0 -419 1 -461 17 -476 23 -23 43
-6 74 64 13 29 32 65 43 81 11 15 28 49 38 77 11 27 34 69 51 93 18 24 32 50
32 56 0 7 16 37 36 66 19 29 66 116 104 194 38 77 80 155 94 174 14 19 26 39
26 44 0 16 122 261 140 282 10 11 48 85 85 165 38 80 78 159 90 175 12 17 48
84 81 150 32 66 74 140 93 165 19 25 64 104 100 175 35 72 75 144 87 160 12
17 32 54 43 83 12 29 28 63 36 76 8 13 26 50 39 84 13 33 37 78 53 99 37 48
95 187 118 281 11 44 30 92 50 121 35 51 145 262 145 279 0 5 20 36 43 69 52
69 99 150 123 213 10 25 30 61 46 82 15 20 35 54 44 75 27 68 125 262 134 268
5 3 43 75 84 159 40 85 88 174 105 199 17 25 31 48 31 52 0 15 124 262 141
281 11 11 30 47 42 80 13 33 38 80 55 103 18 24 32 48 32 53 0 6 18 35 39 66
22 32 48 77 57 102 10 25 27 61 39 80 12 19 29 55 39 79 10 25 30 59 45 77 16
18 37 54 47 80 10 27 30 72 46 100 15 27 37 76 48 109 11 32 25 64 31 71 19
24 65 17 88 -13z m-7397 -1663 c6 0 61 -48 122 -107 131 -127 256 -239 329
-295 28 -23 79 -66 112 -97 33 -31 93 -76 134 -101 40 -25 110 -79 155 -121
44 -41 110 -102 146 -136 36 -33 92 -82 126 -109 114 -92 259 -225 304 -279
45 -55 133 -137 224 -209 26 -22 83 -71 125 -109 42 -38 114 -104 161 -147
241 -220 344 -306 460 -385 52 -35 135 -100 183 -144 49 -44 116 -103 150
-130 34 -28 117 -109 185 -181 130 -139 141 -161 107 -214 -20 -31 -254 -247
-336 -311 -35 -27 -86 -69 -114 -92 -27 -23 -84 -71 -125 -105 -41 -35 -102
-85 -134 -113 -128 -108 -193 -157 -236 -176 -35 -16 -140 -95 -170 -129 -3
-3 -41 -35 -85 -70 -44 -35 -100 -82 -126 -104 -25 -23 -79 -67 -120 -99 -42
-32 -116 -101 -165 -154 -48 -53 -129 -130 -179 -171 -49 -41 -126 -108 -170
-147 -44 -40 -90 -75 -101 -79 -28 -9 -69 10 -82 38 -9 20 -35 138 -66 302 -9
44 -27 107 -40 140 -13 32 -32 111 -41 174 -9 63 -29 167 -45 230 -16 63 -33
149 -40 190 -6 41 -26 122 -44 180 -19 58 -39 145 -46 195 -6 49 -24 141 -39
205 -16 63 -36 162 -46 220 -10 58 -30 139 -45 181 -16 41 -34 111 -40 155
-16 98 -32 176 -58 279 -11 44 -28 129 -37 190 -9 60 -28 137 -41 170 -14 33
-36 121 -49 195 -13 75 -32 171 -44 215 -11 44 -26 130 -35 191 -8 61 -29 154
-46 208 -17 53 -40 146 -50 205 -10 59 -30 150 -45 202 -33 120 -57 417 -35
444 7 9 20 13 27 10 8 -3 19 -5 25 -5z m9415 -5540 c24 -30 53 -73 64 -95 20
-36 50 -83 104 -164 11 -16 59 -88 107 -159 48 -72 92 -133 98 -137 11 -7 101
-143 143 -216 14 -25 33 -52 43 -60 9 -7 27 -30 39 -49 13 -20 55 -74 93 -120
74 -86 124 -172 162 -274 13 -32 37 -75 54 -95 18 -20 59 -74 91 -121 32 -47
69 -98 82 -113 40 -50 119 -220 133 -287 7 -36 26 -92 43 -124 16 -33 39 -100
52 -150 31 -124 97 -320 128 -382 14 -28 35 -87 46 -130 11 -43 30 -106 41
-139 11 -33 30 -96 41 -139 11 -43 33 -105 50 -137 16 -32 38 -96 49 -142 10
-46 28 -107 39 -134 11 -28 27 -86 36 -129 9 -44 29 -108 46 -143 16 -35 39
-100 50 -144 11 -44 29 -97 39 -117 10 -20 28 -74 40 -120 12 -45 34 -109 51
-141 16 -33 36 -89 45 -125 8 -36 26 -95 40 -131 13 -37 33 -102 44 -146 11
-44 33 -103 50 -131 16 -29 36 -83 45 -119 8 -37 27 -98 40 -136 14 -38 36
-119 50 -180 14 -61 36 -146 50 -189 28 -88 31 -134 11 -151 -18 -15 -41 -4
-94 44 -21 18 -64 49 -97 70 -77 49 -124 88 -416 341 -98 85 -135 117 -299
249 -54 44 -144 121 -199 170 -183 162 -214 182 -247 154 -19 -15 -16 -71 10
-184 9 -38 25 -144 37 -235 23 -188 24 -193 50 -275 10 -33 28 -121 39 -195
11 -74 31 -200 45 -280 14 -80 34 -221 44 -315 11 -93 30 -201 42 -240 39
-129 36 -145 -80 -375 -16 -30 -34 -71 -40 -91 -6 -19 -31 -67 -56 -105 -24
-38 -59 -94 -79 -124 -19 -30 -42 -73 -51 -95 -10 -22 -27 -53 -40 -70 -35
-47 -53 -87 -69 -156 -18 -75 -72 -203 -109 -257 -14 -20 -33 -55 -42 -77 -36
-86 -120 -252 -152 -299 -18 -26 -33 -53 -33 -59 0 -18 -111 -241 -131 -262
-10 -11 -28 -43 -40 -70 -12 -28 -34 -68 -49 -90 -15 -22 -35 -56 -43 -76 -8
-20 -31 -57 -51 -83 -20 -26 -36 -52 -36 -56 0 -17 -113 -244 -140 -281 -15
-21 -35 -59 -45 -86 -10 -26 -26 -60 -36 -74 -10 -14 -28 -50 -39 -80 -12 -30
-32 -67 -44 -84 -23 -31 -136 -256 -136 -272 0 -4 -16 -32 -36 -62 -20 -29
-47 -79 -61 -110 -54 -122 -88 -188 -124 -236 -58 -79 -117 -203 -133 -283
-10 -48 -25 -86 -44 -110 -28 -37 -142 -260 -142 -278 0 -6 -12 -26 -26 -45
-25 -33 -94 -171 -139 -274 -11 -28 -35 -71 -51 -95 -17 -25 -39 -67 -49 -93
-21 -54 -65 -97 -101 -97 -19 0 -81 57 -267 243 -133 134 -289 287 -347 341
-187 175 -211 200 -277 286 -93 120 -268 296 -403 405 -136 109 -358 329 -366
362 -9 34 3 85 46 199 22 56 46 144 54 195 9 52 24 120 35 151 11 32 29 102
41 155 12 54 32 123 46 153 14 30 36 102 49 160 13 58 34 139 48 180 14 41 33
110 42 152 9 42 29 107 45 145 16 37 36 109 45 158 9 50 27 124 40 165 13 41
31 115 40 164 9 50 29 114 45 146 16 32 38 103 50 160 11 57 33 149 49 204 16
56 51 200 76 321 26 121 62 276 80 345 19 69 41 163 50 210 22 112 37 145 74
164 40 21 64 20 157 -8 75 -22 115 -30 299 -56 44 -7 116 -20 160 -31 44 -10
151 -28 237 -39 107 -14 193 -32 270 -56 135 -43 203 -48 224 -19 20 27 11 58
-36 125 -21 31 -45 82 -53 113 -9 32 -29 77 -47 100 -34 46 -87 130 -120 192
-12 22 -39 60 -59 85 -20 25 -59 76 -86 114 -28 38 -64 88 -82 112 -18 24 -46
69 -63 101 -54 101 -88 156 -120 198 -65 84 -160 252 -160 284 0 41 39 52 237
67 103 8 242 23 308 34 184 29 260 38 385 45 130 7 302 28 405 50 39 8 121 21
183 29 125 15 152 29 152 78 0 16 -6 41 -14 56 -8 15 -23 72 -35 126 -11 55
-34 125 -50 156 -16 31 -37 85 -46 121 -9 35 -27 98 -40 139 -14 41 -33 118
-44 171 -10 52 -30 118 -44 145 -14 27 -34 93 -46 147 -12 53 -32 125 -46 159
-13 35 -31 96 -39 137 -9 40 -29 101 -46 135 -16 35 -39 103 -49 152 -11 49
-25 103 -31 119 -6 17 -25 79 -41 139 -17 61 -43 140 -59 176 -16 36 -38 106
-49 155 -11 50 -29 116 -40 149 -12 32 -28 97 -37 143 -8 47 -29 114 -45 149
-29 63 -79 261 -79 315 0 54 50 237 85 310 19 40 35 79 35 87 0 7 16 53 35
102 19 50 43 128 54 175 12 47 32 107 46 134 13 27 36 96 49 153 14 57 32 120
40 140 9 21 25 76 36 123 21 90 58 175 93 213 33 36 64 25 114 -38z m-3629
-2837 c59 -26 125 -60 147 -75 22 -15 65 -36 95 -47 31 -10 74 -27 95 -38 22
-11 65 -28 95 -38 30 -9 84 -34 120 -55 36 -21 85 -44 110 -50 24 -7 65 -22
90 -35 26 -13 72 -30 105 -39 32 -8 80 -28 107 -45 26 -17 77 -39 112 -50 36
-11 86 -31 113 -44 27 -14 69 -30 93 -37 25 -6 65 -24 90 -38 78 -46 233 -122
290 -143 30 -11 72 -31 94 -45 21 -15 82 -41 135 -59 207 -71 245 -86 295
-114 68 -39 234 -100 300 -111 90 -14 136 -30 220 -73 45 -23 96 -47 113 -54
18 -6 36 -19 40 -29 8 -22 -27 -51 -70 -59 -18 -2 -99 -16 -182 -29 -191 -31
-286 -42 -515 -61 -193 -15 -481 -43 -539 -51 -18 -3 -44 -17 -58 -30 -31 -31
-26 -70 16 -129 16 -22 45 -74 65 -115 41 -85 93 -171 129 -215 13 -16 33 -48
45 -70 11 -22 42 -72 69 -111 26 -39 66 -98 87 -130 22 -32 51 -77 66 -99 15
-22 35 -56 44 -75 9 -19 32 -53 52 -75 42 -47 77 -121 69 -145 -9 -30 -34 -32
-134 -11 -53 10 -141 25 -196 31 -55 6 -172 25 -260 40 -88 16 -229 39 -314
50 -84 12 -206 32 -270 45 -64 13 -170 31 -236 39 -66 9 -154 28 -196 41 -89
29 -189 50 -318 66 -52 6 -119 20 -149 30 -30 10 -120 28 -200 40 -79 11 -186
33 -238 49 -51 16 -158 39 -236 50 -79 12 -168 28 -198 35 -30 8 -121 23 -202
35 -80 11 -199 37 -265 56 -162 49 -212 49 -289 3 -32 -20 -84 -42 -114 -49
-30 -7 -84 -24 -120 -37 -36 -13 -103 -33 -150 -44 -47 -11 -102 -31 -122 -45
-21 -13 -80 -36 -130 -51 -51 -14 -113 -35 -137 -45 -25 -10 -78 -28 -118 -39
-41 -10 -97 -33 -126 -49 -29 -16 -83 -36 -121 -45 -38 -9 -94 -29 -125 -44
-57 -29 -145 -58 -326 -105 -55 -15 -134 -38 -175 -52 -41 -14 -115 -36 -165
-50 -49 -14 -121 -40 -160 -58 -38 -19 -95 -39 -125 -46 -30 -7 -86 -25 -125
-41 -38 -15 -88 -31 -110 -34 -22 -4 -71 -24 -110 -45 -38 -21 -99 -46 -135
-55 -35 -9 -82 -27 -105 -40 -22 -13 -69 -31 -105 -40 -36 -9 -92 -32 -125
-50 -33 -18 -93 -40 -134 -49 -40 -9 -99 -27 -130 -40 -31 -13 -81 -29 -111
-36 -30 -7 -83 -27 -116 -46 -34 -19 -92 -41 -130 -50 -37 -8 -93 -26 -125
-39 -83 -35 -264 -78 -307 -72 -62 8 -263 47 -345 67 -43 11 -131 29 -196 39
-64 11 -154 34 -198 50 -44 16 -130 37 -189 46 -60 9 -154 28 -209 41 -55 13
-161 33 -235 44 -80 12 -166 32 -210 49 -41 16 -111 34 -155 41 -44 7 -88 16
-97 21 -33 18 -21 60 38 129 30 36 91 110 135 165 75 92 182 195 281 270 l40
30 659 6 c362 4 671 10 686 14 16 3 43 18 61 31 18 14 63 36 101 49 38 13 79
30 92 38 13 9 54 25 91 37 36 12 86 34 111 51 24 16 69 38 99 48 30 10 74 29
98 41 24 12 66 29 94 37 28 8 80 32 116 53 36 21 83 43 105 50 22 7 60 23 85
35 25 12 68 30 97 39 28 10 71 32 95 50 46 35 168 96 256 127 29 10 78 34 110
53 31 20 82 44 113 55 31 10 71 27 89 36 18 9 58 26 88 36 31 11 76 32 101 48
25 16 71 37 101 46 30 10 69 26 86 36 18 11 57 28 88 39 31 10 82 35 114 54
31 20 84 45 116 56 33 11 69 26 80 33 12 7 44 22 71 32 28 10 78 38 112 61 44
30 82 47 135 58 104 24 246 73 293 101 60 36 67 40 268 120 34 14 80 35 102
47 127 68 239 119 324 149 30 11 75 33 101 49 26 16 72 39 104 50 31 10 70 28
86 40 15 11 61 33 100 49 40 16 80 37 89 45 10 9 49 27 88 40 39 13 82 31 95
40 14 9 56 27 95 40 39 13 89 38 112 54 23 17 66 38 94 48 29 9 66 24 83 34
17 9 57 27 90 39 32 12 80 36 105 52 25 16 74 38 109 50 35 11 73 27 86 36 41
26 108 43 157 38 26 -2 94 -25 155 -52z m-7966 -1431 c49 -17 102 -41 120 -53
32 -23 102 -51 303 -119 85 -28 120 -46 155 -77 l45 -41 0 -199 c0 -199 0
-200 -26 -239 -15 -21 -114 -124 -219 -229 -106 -104 -241 -238 -301 -297 -68
-69 -116 -108 -129 -108 -34 0 -76 27 -106 68 -16 21 -74 80 -129 131 -55 51
-117 109 -138 129 -21 20 -55 56 -75 81 -21 25 -89 104 -153 176 -201 226
-238 290 -205 353 21 40 108 113 176 147 30 15 69 39 85 52 30 25 113 76 195
120 25 14 57 36 71 49 14 13 54 40 90 59 77 43 110 42 241 -3z m6783 -1082
c61 -11 164 -27 230 -35 223 -28 460 -65 535 -85 41 -11 146 -29 232 -40 119
-15 173 -27 225 -50 49 -20 105 -33 194 -45 68 -8 178 -26 244 -39 66 -14 172
-32 235 -41 63 -9 155 -30 203 -46 49 -16 132 -36 184 -45 156 -25 177 -45
149 -145 -8 -30 -20 -81 -26 -114 -7 -33 -27 -96 -45 -140 -18 -44 -38 -111
-44 -150 -7 -38 -26 -110 -42 -160 -16 -49 -36 -130 -44 -178 -8 -49 -27 -111
-41 -138 -14 -28 -38 -101 -54 -162 -15 -62 -33 -124 -38 -138 -6 -14 -22 -84
-37 -155 -15 -70 -41 -162 -57 -203 -17 -42 -38 -114 -48 -161 -10 -47 -29
-121 -43 -165 -14 -44 -30 -113 -36 -154 -7 -41 -25 -104 -41 -141 -16 -37
-39 -105 -49 -151 -11 -46 -29 -106 -40 -134 -10 -27 -28 -98 -40 -156 -11
-59 -34 -135 -51 -170 -16 -35 -39 -107 -50 -159 -12 -52 -30 -124 -40 -161
-11 -36 -27 -103 -35 -150 -26 -136 -43 -178 -99 -238 -28 -30 -73 -68 -101
-86 -27 -18 -82 -62 -121 -98 -90 -84 -175 -141 -322 -215 -64 -33 -152 -84
-194 -113 -140 -98 -260 -184 -302 -217 -22 -18 -54 -40 -70 -50 -73 -44 -193
-126 -216 -146 -14 -13 -54 -41 -88 -62 -35 -21 -84 -51 -108 -66 -25 -15 -77
-56 -118 -92 -40 -35 -97 -80 -127 -100 -30 -20 -85 -59 -124 -87 -38 -27 -81
-57 -95 -66 -14 -9 -45 -33 -70 -53 -55 -44 -155 -112 -197 -134 -17 -8 -52
-33 -76 -53 -25 -21 -81 -60 -124 -87 -43 -27 -94 -64 -113 -82 -21 -20 -58
-39 -94 -49 -57 -17 -153 -72 -248 -144 -26 -20 -67 -48 -91 -63 -24 -15 -79
-59 -123 -98 -43 -39 -106 -89 -139 -110 -33 -22 -87 -60 -120 -84 -33 -24
-94 -65 -135 -92 -41 -26 -91 -61 -111 -78 -20 -17 -71 -51 -114 -76 -42 -25
-95 -60 -118 -77 -23 -18 -82 -59 -131 -90 -49 -32 -108 -74 -131 -93 -23 -19
-76 -59 -116 -88 -41 -29 -105 -75 -143 -102 -38 -28 -72 -50 -76 -50 -10 0
-137 -97 -179 -137 -20 -19 -83 -57 -140 -85 -63 -30 -152 -86 -221 -139 -141
-106 -178 -129 -206 -129 -32 0 -34 17 -10 91 21 63 46 109 113 207 37 54 42
63 119 232 31 69 66 139 79 155 12 17 32 57 44 90 12 33 31 74 41 90 10 17 29
58 43 92 14 34 38 81 54 105 39 58 88 176 113 272 23 87 33 111 61 142 10 11
30 49 45 84 29 72 93 189 131 238 14 18 36 61 49 94 13 34 31 72 40 86 9 13
24 49 35 80 10 30 29 69 42 86 22 29 147 277 147 291 0 4 14 26 31 51 17 25
42 70 56 102 50 113 107 228 133 267 65 99 88 198 49 210 -38 12 -112 -6 -191
-46 -42 -21 -99 -44 -125 -49 -26 -6 -79 -24 -118 -39 -38 -15 -95 -34 -125
-40 -30 -7 -93 -30 -140 -51 -235 -107 -330 -131 -338 -87 -5 24 38 87 104
157 29 30 74 87 99 125 28 44 90 111 163 179 64 60 127 122 138 138 24 32 173
202 279 318 119 130 208 232 270 309 33 41 94 111 135 156 41 46 120 133 175
195 55 62 127 143 160 179 90 98 176 200 219 256 20 28 70 84 109 126 90 96
213 234 363 409 63 74 140 163 170 198 31 34 59 76 64 93 13 45 -24 355 -59
491 -16 62 -37 178 -46 258 -9 80 -25 190 -35 245 -11 55 -24 145 -29 201 -6
56 -13 108 -16 117 -7 15 -201 201 -239 226 -12 8 -42 32 -68 54 -53 43 -63
81 -30 109 18 17 157 66 263 93 35 9 93 32 129 51 36 18 103 44 150 58 47 14
123 36 170 49 47 14 137 39 200 56 63 17 142 40 175 51 74 25 210 21 380 -10z
m6576 -1281 c24 -65 57 -271 69 -434 25 -349 33 -434 41 -485 5 -30 21 -201
34 -380 16 -211 33 -372 50 -459 23 -126 37 -249 65 -586 6 -77 18 -185 25
-240 18 -124 32 -274 45 -477 6 -87 17 -195 25 -240 34 -185 54 -346 65 -505
16 -253 40 -518 50 -571 13 -66 43 -549 37 -595 -5 -36 -90 -190 -127 -232
-20 -22 -127 -176 -239 -345 -38 -58 -88 -132 -111 -165 -23 -33 -70 -103
-104 -155 -68 -104 -100 -146 -258 -342 -16 -20 -55 -77 -88 -127 -32 -51 -71
-108 -87 -129 -30 -39 -79 -118 -121 -192 -14 -25 -39 -61 -56 -80 -17 -20
-53 -73 -81 -118 -27 -46 -68 -107 -91 -135 -22 -29 -46 -68 -54 -87 -29 -76
-90 -188 -122 -226 -18 -22 -51 -71 -73 -109 -22 -37 -58 -89 -80 -114 -69
-79 -111 -134 -145 -191 -18 -30 -45 -68 -60 -85 -15 -16 -52 -70 -83 -120
-30 -49 -72 -110 -92 -135 -39 -47 -81 -110 -129 -195 -16 -27 -38 -60 -50
-73 -11 -13 -48 -67 -81 -122 -33 -54 -75 -116 -94 -139 -18 -22 -47 -64 -65
-93 -32 -55 -132 -134 -225 -179 -71 -34 -153 -88 -196 -130 -29 -27 -57 -42
-101 -53 -64 -17 -148 -60 -217 -113 -23 -17 -98 -62 -167 -99 -69 -37 -140
-80 -158 -96 -18 -16 -54 -39 -80 -52 -90 -45 -167 -90 -202 -117 -35 -26 -63
-43 -200 -117 -36 -19 -80 -48 -99 -64 -18 -16 -50 -37 -70 -46 -52 -24 -150
-89 -191 -128 -34 -32 -119 -84 -211 -130 -25 -12 -59 -33 -75 -47 -16 -13
-49 -34 -74 -47 -25 -13 -64 -36 -87 -51 -23 -16 -46 -29 -51 -29 -5 0 -29
-14 -53 -32 -43 -31 -120 -77 -249 -146 -36 -20 -78 -46 -94 -59 -39 -33 -170
-97 -229 -113 -27 -7 -73 -31 -102 -54 -30 -23 -82 -56 -115 -75 -33 -19 -88
-57 -121 -83 -71 -57 -161 -114 -277 -175 -78 -40 -102 -46 -102 -22 0 13 72
109 100 134 13 11 36 38 52 60 16 22 48 60 71 85 23 25 75 83 115 130 128 148
245 282 303 344 30 34 77 88 105 121 27 33 54 65 61 70 6 6 47 55 92 110 122
152 264 317 416 485 33 37 92 104 130 151 103 123 173 196 211 220 40 24 125
128 207 249 31 47 82 114 112 150 30 36 81 97 112 135 32 39 86 99 121 135 91
93 137 165 151 241 7 35 26 104 42 153 17 49 37 135 45 190 8 56 26 135 39
176 14 41 32 122 41 180 9 58 29 138 45 178 17 42 38 127 49 200 12 70 29 156
40 192 10 36 28 120 40 187 11 68 36 172 55 232 19 61 41 150 50 199 8 49 24
116 35 148 12 33 28 106 36 164 9 58 29 143 45 190 16 47 39 139 50 205 11 66
33 170 49 230 16 61 34 146 41 190 20 136 139 411 215 497 31 35 54 91 54 132
0 24 104 239 136 283 13 17 33 55 45 85 11 29 29 67 39 83 9 17 23 47 29 67 7
20 29 63 50 96 22 33 42 69 46 82 10 33 123 251 139 269 7 9 44 78 81 153 36
76 80 154 96 174 32 40 104 176 125 237 8 22 29 60 48 86 18 25 37 57 41 71
11 38 114 241 139 275 12 17 28 46 36 65 25 63 116 235 149 280 17 23 31 48
31 54 0 16 111 238 137 273 26 36 71 137 113 257 15 43 38 90 49 105 12 14 33
51 47 81 65 137 118 243 134 263 18 24 140 272 140 286 0 5 15 31 33 57 34 49
147 281 147 301 0 5 14 29 31 53 18 24 43 68 56 99 25 57 105 194 129 222 8 8
26 44 40 80 33 81 41 91 73 87 20 -2 29 -13 42 -49z m-4888 -3193 c18 -7 202
-183 423 -402 215 -214 417 -413 449 -443 31 -30 93 -100 138 -155 90 -111
339 -361 402 -403 99 -67 183 -136 194 -159 6 -14 11 -41 11 -60 0 -31 -6 -38
-67 -78 -38 -25 -79 -54 -93 -65 -14 -11 -29 -21 -35 -21 -11 0 -170 -99 -233
-145 -23 -16 -61 -42 -84 -57 -24 -15 -73 -53 -110 -85 -36 -32 -101 -78 -143
-103 -43 -25 -96 -61 -119 -80 -22 -20 -84 -62 -136 -94 -52 -32 -113 -71
-135 -87 -68 -49 -173 -117 -207 -135 -18 -9 -46 -29 -63 -44 -30 -28 -87 -65
-179 -117 -27 -16 -68 -44 -90 -64 -51 -45 -133 -90 -213 -119 -45 -16 -83
-41 -135 -87 -40 -36 -96 -80 -123 -98 -28 -18 -57 -40 -64 -49 -8 -9 -67 -48
-132 -87 -66 -38 -131 -80 -146 -93 -16 -12 -44 -31 -63 -43 -107 -63 -179
-109 -212 -137 -20 -17 -73 -53 -118 -81 -45 -27 -96 -62 -113 -76 -45 -36
-215 -149 -225 -149 -5 0 -31 -19 -59 -42 -28 -24 -90 -67 -137 -97 -47 -29
-96 -65 -109 -80 -27 -32 -122 -98 -193 -134 -27 -14 -57 -33 -64 -42 -27 -32
-155 -113 -280 -175 -120 -60 -151 -78 -250 -148 -25 -17 -101 -70 -170 -117
-69 -47 -136 -93 -150 -104 -14 -10 -56 -39 -95 -63 -116 -74 -147 -96 -210
-147 -33 -27 -100 -78 -149 -113 -127 -90 -179 -144 -205 -213 -12 -32 -34
-74 -49 -94 -28 -37 -132 -240 -132 -258 0 -6 -12 -28 -27 -49 -32 -47 -153
-283 -153 -299 0 -7 -13 -29 -30 -49 -27 -35 -150 -272 -150 -290 0 -5 -15
-29 -34 -55 -19 -26 -44 -71 -56 -101 -11 -29 -30 -65 -40 -80 -10 -15 -28
-50 -39 -78 -12 -29 -36 -75 -55 -102 -19 -28 -40 -67 -46 -87 -7 -21 -21 -52
-31 -69 -11 -18 -28 -58 -39 -90 -11 -31 -32 -72 -46 -91 -14 -18 -35 -55 -46
-81 -24 -55 -98 -178 -144 -239 -21 -27 -38 -67 -48 -112 -16 -72 -104 -273
-125 -285 -14 -9 -114 -215 -131 -271 -7 -22 -23 -54 -35 -70 -28 -38 -120
-216 -135 -261 -7 -19 -26 -55 -44 -82 -18 -26 -59 -103 -92 -172 -34 -69 -74
-141 -91 -160 -17 -19 -44 -64 -60 -100 -35 -77 -77 -130 -104 -130 -28 0 -46
37 -59 124 -7 44 -24 121 -40 170 -15 50 -35 135 -44 188 -9 54 -30 130 -46
171 -16 40 -38 124 -49 187 -12 63 -30 144 -41 179 -11 36 -27 105 -35 155
-17 107 -24 131 -58 212 -14 34 -33 103 -41 155 -9 52 -24 124 -35 160 -11 35
-32 121 -45 189 -14 69 -37 156 -50 193 -14 37 -35 120 -47 185 -11 64 -31
149 -45 187 -44 128 -56 395 -21 461 69 130 94 174 121 205 67 79 94 116 115
156 11 24 34 57 50 75 15 18 37 51 49 73 11 22 35 63 53 92 80 122 115 179
185 299 30 50 61 97 69 104 8 7 30 40 48 74 64 117 107 189 133 219 14 16 39
55 55 86 53 100 162 265 257 391 36 46 77 107 92 135 52 98 101 178 126 208
32 38 99 170 113 224 6 22 32 70 59 106 26 36 67 102 92 147 25 45 61 103 81
128 19 26 49 72 65 102 66 119 106 186 124 205 10 11 29 43 43 71 34 67 71 97
194 155 56 27 117 62 135 78 18 15 49 39 69 52 118 78 397 274 422 297 12 10
50 38 84 61 34 22 88 65 120 94 54 50 164 126 231 161 16 8 47 30 70 48 23 18
78 56 123 83 44 28 93 60 107 71 15 12 72 51 127 87 55 36 116 79 135 95 19
16 88 63 152 105 64 42 120 81 123 87 12 19 151 104 208 126 32 13 73 36 92
51 121 101 195 156 370 275 192 131 325 225 348 245 12 11 54 40 92 64 84 54
142 94 300 204 144 101 179 124 270 184 39 25 102 75 140 113 66 64 144 123
244 185 24 16 56 38 70 50 30 24 119 73 133 73 5 0 23 -6 41 -14z m1635 -2248
c16 -16 15 -52 -2 -110 -8 -25 -22 -97 -31 -159 -10 -64 -29 -144 -45 -183
-15 -39 -33 -98 -40 -131 -6 -33 -27 -128 -46 -211 -19 -84 -39 -187 -45 -230
-6 -44 -24 -112 -40 -152 -16 -41 -36 -113 -45 -160 -9 -48 -29 -141 -45 -207
-16 -66 -38 -174 -49 -240 -11 -66 -31 -149 -44 -184 -14 -35 -35 -107 -46
-160 -12 -53 -34 -145 -49 -206 -16 -60 -32 -136 -35 -167 -6 -47 -17 -72 -63
-140 -31 -46 -84 -114 -118 -153 -34 -38 -91 -104 -126 -146 -35 -42 -118
-136 -184 -209 -66 -73 -145 -162 -175 -199 -149 -181 -192 -230 -229 -254
-22 -14 -76 -70 -120 -124 -162 -196 -241 -288 -263 -308 -13 -11 -34 -34 -46
-50 -13 -17 -59 -67 -103 -113 -43 -45 -79 -87 -79 -93 0 -19 -101 -162 -144
-204 -23 -22 -59 -63 -81 -90 -22 -27 -94 -110 -160 -184 -66 -74 -138 -155
-160 -180 -21 -25 -70 -73 -107 -106 -38 -33 -110 -105 -160 -160 -50 -55
-166 -179 -258 -275 -92 -96 -189 -200 -217 -230 -28 -30 -79 -84 -113 -120
-34 -36 -77 -87 -94 -115 -55 -85 -458 -506 -564 -590 -54 -43 -214 -197 -362
-349 -388 -397 -466 -481 -532 -570 -77 -104 -477 -517 -545 -562 -28 -19 -68
-56 -89 -82 -20 -26 -60 -70 -88 -97 -106 -105 -374 -396 -499 -542 -43 -50
-85 -94 -94 -97 -9 -4 -26 0 -38 8 -24 16 -35 54 -35 120 0 22 -13 120 -29
216 -16 96 -32 211 -36 255 -3 44 -10 127 -16 185 -5 58 -14 233 -19 390 -5
157 -18 371 -29 475 -11 105 -27 290 -36 411 l-17 222 27 63 c43 103 53 131
69 190 9 30 28 73 43 95 15 21 61 107 103 189 42 83 89 173 103 200 15 28 52
106 83 174 30 69 69 144 85 167 16 24 29 45 29 49 0 13 114 241 135 270 32 44
108 171 140 235 15 30 38 69 51 86 13 17 33 56 43 86 11 31 26 67 35 80 9 14
27 53 41 88 13 34 36 77 49 95 14 18 34 55 45 82 10 26 33 74 50 107 17 32 31
64 31 71 0 6 20 43 45 81 25 37 45 72 45 77 0 18 112 238 136 266 14 17 36 57
49 90 13 34 32 73 44 89 19 27 88 183 125 285 27 72 175 204 309 273 16 9 45
30 65 48 20 18 82 60 138 94 55 34 109 71 120 83 10 12 44 35 74 51 112 60
168 94 211 126 24 18 85 58 134 89 50 30 101 66 115 78 14 12 70 52 125 88 55
36 114 79 130 97 44 47 136 106 265 173 126 65 195 107 299 182 38 28 99 68
136 90 36 22 90 58 120 80 30 22 89 60 131 85 41 25 107 68 145 95 38 28 99
68 135 90 36 22 111 76 166 120 55 44 110 87 122 95 11 8 41 30 66 50 25 20
78 56 118 81 40 24 92 59 115 77 47 36 59 44 190 121 51 29 108 67 127 83 19
16 78 57 130 89 52 33 106 70 120 84 14 13 49 33 77 44 92 36 192 90 231 125
20 18 55 43 77 54 22 12 68 43 102 69 158 122 213 163 249 181 22 11 48 30 59
42 11 12 40 34 65 48 42 24 150 97 222 150 34 24 77 29 96 10z"/>
<path d="M17950 23809 c-80 -20 -147 -43 -185 -64 -40 -22 -91 -39 -150 -50
-49 -10 -110 -25 -135 -35 -26 -10 -114 -32 -196 -50 -289 -60 -470 -102 -544
-125 -41 -13 -115 -31 -165 -40 -49 -9 -120 -30 -157 -46 -36 -16 -95 -36
-130 -45 -34 -9 -115 -32 -178 -51 -129 -40 -143 -51 -263 -208 -34 -44 -84
-107 -112 -141 -27 -33 -68 -85 -90 -114 -22 -30 -58 -74 -80 -99 -23 -25 -67
-82 -100 -126 -32 -44 -73 -96 -91 -115 -17 -19 -54 -66 -83 -105 -80 -108
-148 -190 -242 -289 -114 -120 -144 -176 -94 -176 32 0 81 24 120 59 57 52
138 103 193 122 30 10 70 31 89 45 49 37 164 114 196 131 16 8 49 30 73 48 25
19 64 39 87 45 23 6 80 22 127 37 47 14 133 36 191 48 58 13 133 37 165 53 33
17 95 38 138 46 42 9 103 25 134 36 31 11 101 28 154 39 134 27 236 89 416
253 34 32 86 76 115 98 28 22 106 85 172 140 66 55 149 124 185 154 36 29 111
97 167 151 61 58 159 136 244 194 119 81 147 105 168 144 22 41 24 49 11 57
-18 12 -1 14 -150 -21z"/>
</g>
</svg>
